 <svg  version="1.0" xmlns="http://www.w3.org/2000/svg"  width="539.000000pt" height="463.000000pt" viewBox="0 0 539.000000 463.000000"  preserveAspectRatio="xMidYMid meet">  <g transform="translate(0.000000,463.000000) scale(0.100000,-0.100000)" fill="#05b005" stroke="none"> <path d="M10 4585 c-7 -17 -9 -167 -8 -423 l3 -397 11 420 c6 231 10 422 8 424 -2 2 -8 -9 -14 -24z"/> <path d="M727 4560 c-165 -30 -297 -98 -413 -214 -130 -130 -202 -278 -224 -459 -23 -192 16 -331 154 -560 98 -161 556 -907 686 -1117 43 -69 157 -255 255 -415 450 -734 452 -737 559 -822 82 -66 155 -105 256 -138 74 -24 101 -27 215 -27 112 0 143 4 220 26 166 50 325 163 415 299 37 55 41 67 37 107 -4 35 -13 51 -42 78 -35 32 -41 34 -93 30 -51 -5 -59 -9 -87 -44 -56 -72 -156 -164 -206 -189 -147 -75 -325 -74 -473 3 -129 67 -123 59 -541 742 -120 195 -252 411 -295 480 -119 193 -228 370 -335 545 -54 88 -127 207 -163 265 -230 369 -280 459 -296 529 -29 128 -18 237 38 350 58 120 154 205 291 257 l70 26 1448 -6 c797 -4 1472 -11 1500 -16 251 -42 429 -251 429 -505 1 -156 35 -94 -644 -1170 -286 -452 -272 -427 -265 -478 9 -62 60 -107 124 -107 35 0 55 6 75 23 15 12 78 103 140 202 63 99 148 233 189 297 41 65 85 136 99 158 14 22 119 190 234 372 116 183 225 366 242 407 169 387 -22 848 -416 1008 -117 47 -169 51 -765 57 -1094 11 -2371 15 -2418 6z"/> <path d="M1455 3846 c-77 -22 -103 -33 -151 -67 -47 -32 -164 -147 -164 -161 0 -5 19 3 41 18 84 53 166 76 269 77 87 1 101 -2 167 -32 159 -74 252 -235 253 -439 0 -24 3 -42 8 -40 166 86 232 103 369 96 111 -6 180 -28 282 -90 34 -21 65 -38 67 -38 2 0 4 27 4 59 0 209 147 380 356 413 104 16 225 -19 352 -103 l34 -22 -26 50 c-31 62 -105 140 -167 176 -171 100 -417 43 -527 -121 -69 -102 -88 -185 -70 -293 6 -38 8 -72 5 -75 -3 -4 -28 12 -56 35 l-49 41 19 37 c22 44 24 78 5 114 -16 30 -105 143 -117 147 -14 6 -10 -41 6 -68 23 -39 19 -87 -10 -115 -38 -39 -57 -33 -49 15 6 33 2 45 -20 75 -36 47 -47 44 -39 -10 8 -61 -7 -76 -136 -137 -57 -27 -124 -63 -148 -79 -24 -17 -47 -29 -50 -26 -3 3 0 29 6 57 48 225 -47 418 -242 492 -67 26 -160 31 -222 14z"/> <path d="M1333 3611 c-217 -75 -260 -336 -78 -481 53 -43 59 -38 20 20 -18 27 -39 75 -46 105 -30 133 44 293 164 357 44 24 9 23 -60 -1z"/> <path d="M3115 3551 c150 -92 193 -330 84 -467 -16 -20 -29 -39 -29 -41 0 -2 19 6 42 19 80 44 131 138 131 239 0 113 -54 192 -167 245 -64 30 -106 33 -61 5z"/> <path d="M1020 3222 c0 -123 58 -259 134 -316 72 -55 116 -70 196 -68 41 1 86 3 100 5 21 2 25 -2 22 -23 -2 -14 -4 -65 -5 -115 -3 -133 20 -176 179 -331 68 -67 124 -126 124 -132 0 -6 -6 -13 -12 -15 -7 -3 1 -3 17 -1 26 4 37 -2 74 -40 24 -26 47 -46 52 -46 18 0 8 -24 -33 -74 l-43 -51 47 43 c26 23 51 42 56 42 13 0 39 -32 45 -55 4 -16 5 -15 6 6 2 51 -58 142 -185 279 -165 178 -210 245 -226 338 -13 80 -2 167 32 248 18 41 18 45 4 40 -9 -4 -50 -9 -90 -13 -200 -17 -357 76 -452 266 l-42 83 0 -70z"/> <path d="M3396 3134 c-46 -90 -113 -159 -193 -199 -50 -25 -72 -30 -164 -33 -59 -2 -130 1 -159 7 -29 6 -55 9 -58 6 -3 -2 3 -24 12 -47 29 -72 32 -184 8 -264 -25 -80 -56 -122 -167 -224 -165 -153 -220 -214 -258 -286 -42 -82 -42 -80 -23 -87 10 -4 12 0 9 14 -5 19 30 69 48 69 5 0 26 -27 49 -59 22 -33 45 -63 52 -67 7 -5 -9 22 -35 58 -26 37 -47 73 -47 81 0 7 11 20 25 27 23 12 28 11 50 -10 30 -28 33 -22 5 10 -19 22 -19 25 -4 41 23 26 50 32 76 18 23 -12 23 -12 4 10 -11 11 -17 23 -15 24 218 172 254 205 295 274 48 80 66 194 43 262 -6 18 -9 34 -6 37 3 3 40 -1 81 -10 76 -16 133 -12 197 12 45 18 134 108 162 165 31 64 59 176 55 218 -3 26 -7 21 -42 -47z"/> <path d="M1752 2914 c-12 -8 -22 -20 -22 -25 0 -5 10 -1 22 11 27 25 31 25 52 1 15 -17 15 -21 -9 -72 -22 -47 -25 -63 -19 -119 13 -139 107 -270 194 -270 39 0 72 26 84 65 8 28 -17 120 -54 199 -70 148 -191 250 -248 210z m223 -315 c50 -70 61 -97 47 -111 -30 -30 -122 40 -122 93 0 26 18 69 29 69 5 0 26 -23 46 -51z"/> <path d="M2661 2895 c-1 -5 8 -21 19 -35 11 -14 20 -20 20 -14 0 7 -9 22 -20 35 -10 13 -19 20 -19 14z"/> <path d="M2575 2861 c-83 -52 -183 -183 -210 -275 -20 -67 -19 -98 6 -130 17 -21 29 -26 68 -26 65 0 117 40 162 122 32 58 34 70 34 153 0 68 -4 97 -16 116 -12 18 -14 30 -7 42 12 22 0 21 -37 -2z m-71 -247 c23 -61 -30 -144 -93 -144 -46 0 -41 34 17 103 49 59 66 68 76 41z"/> <path d="M2093 2000 c-35 -14 -31 -62 8 -94 25 -21 41 -26 86 -26 47 0 59 4 84 29 36 36 37 56 4 77 -30 20 -149 29 -182 14z"/> </g> </svg> 