<?xml version="1.0" standalone="no"?>
<!DOCTYPE svg PUBLIC "-//W3C//DTD SVG 20010904//EN"
 "http://www.w3.org/TR/2001/REC-SVG-20010904/DTD/svg10.dtd">
<svg version="1.0" xmlns="http://www.w3.org/2000/svg"
 width="192.000000pt" height="192.000000pt" viewBox="0 0 192.000000 192.000000"
 preserveAspectRatio="xMidYMid meet">
<metadata>
Created by potrace 1.14, written by Peter Selinger 2001-2017
</metadata>
<g transform="translate(0.000000,192.000000) scale(0.100000,-0.100000)"
fill="#000000" stroke="none">
<path d="M1 1748 c1 -84 3 -144 5 -133 7 42 9 285 2 285 -5 0 -7 -69 -7 -152z"/>
<path d="M297 1884 c-86 -22 -147 -66 -196 -143 -44 -68 -69 -162 -66 -247 2
-80 21 -138 80 -249 23 -44 66 -125 95 -180 29 -55 65 -122 80 -150 15 -27 58
-108 95 -180 37 -71 76 -143 85 -160 10 -16 52 -97 95 -180 101 -194 136 -253
177 -292 120 -114 292 -112 416 4 78 74 96 147 45 180 -20 13 -28 14 -48 3
-14 -7 -27 -21 -30 -31 -10 -30 -82 -87 -126 -99 -77 -21 -149 3 -201 65 -14
17 -55 89 -93 160 -37 72 -78 148 -90 170 -12 22 -55 103 -95 180 -40 77 -83
158 -95 180 -12 22 -78 146 -146 275 l-124 235 -2 75 c-3 113 41 196 127 240
33 16 77 17 671 15 614 -3 637 -4 675 -23 80 -41 127 -118 134 -217 1 -17 1
-32 0 -35 -1 -3 -3 -17 -5 -32 -2 -15 -13 -46 -24 -70 -18 -39 -39 -78 -141
-263 -18 -33 -51 -94 -73 -135 -22 -41 -63 -115 -90 -165 -62 -115 -68 -145
-32 -173 47 -38 60 -24 193 219 117 213 219 403 249 461 20 38 43 158 39 198
-20 189 -117 320 -266 358 -19 4 -249 10 -510 11 -261 1 -539 3 -618 4 -78 1
-161 -3 -185 -9z"/>
<path d="M588 1521 c-33 -16 -80 -61 -101 -97 -4 -7 14 -2 40 11 63 33 103 36
152 14 68 -30 106 -98 117 -211 1 -10 2 -20 3 -23 0 -3 20 5 44 17 29 16 60
22 103 23 51 0 69 -5 112 -32 30 -19 52 -27 53 -20 3 87 25 142 71 183 58 51
143 52 207 3 28 -22 49 -26 32 -6 -6 8 -8 16 -5 19 2 3 -16 26 -41 51 -52 52
-96 66 -155 48 -85 -25 -134 -97 -135 -198 0 -60 -1 -62 -18 -44 -15 15 -16
22 -7 43 13 27 2 57 -40 108 l-20 25 6 -51 c5 -41 3 -52 -9 -57 -11 -4 -14 -2
-10 9 6 17 -15 64 -30 64 -5 0 -7 -10 -4 -23 9 -33 9 -33 -94 -95 l-36 -22 2
62 c1 35 -2 74 -7 88 -40 108 -141 157 -230 111z"/>
<path d="M577 1422 c-49 -10 -98 -87 -93 -144 5 -46 29 -91 60 -112 l25 -16
-19 32 c-37 64 -28 156 21 208 33 34 34 39 6 32z"/>
<path d="M1332 1379 c66 -57 75 -177 19 -243 -15 -18 -15 -18 6 -8 79 42 97
170 32 233 -16 16 -34 29 -39 29 -4 0 -17 3 -27 6 -12 4 -9 -2 9 -17z"/>
<path d="M431 1224 c-1 -61 26 -129 65 -164 32 -28 62 -36 114 -31 12 1 15
-12 15 -61 1 -74 17 -110 83 -180 l46 -50 -24 -19 -25 -20 33 16 c29 14 33 14
38 0 4 -9 -2 -25 -11 -35 -10 -11 -15 -20 -11 -20 4 0 16 10 26 23 17 20 19
20 25 5 4 -11 -3 -30 -18 -50 -28 -39 -47 -73 -25 -47 7 8 23 28 36 44 16 21
26 25 34 17 8 -8 5 -21 -11 -48 -12 -20 -20 -38 -18 -40 2 -3 14 15 27 39 l23
44 -28 51 c-15 28 -35 59 -44 69 -43 46 -91 118 -102 150 -11 35 -8 120 6 156
6 15 2 17 -31 16 -22 -1 -51 -1 -65 -1 -38 3 -107 68 -134 126 l-23 51 -1 -41z"/>
<path d="M1450 1192 c0 -27 -47 -90 -80 -107 -37 -19 -103 -26 -143 -14 -28 8
-29 7 -22 -19 12 -46 13 -112 2 -149 -6 -19 -38 -65 -72 -101 -112 -122 -136
-172 -102 -207 20 -20 20 -20 8 2 -14 27 -14 53 -1 53 5 0 21 -17 35 -37 14
-21 25 -33 25 -28 0 6 -11 27 -25 47 -32 47 -15 61 28 22 l31 -29 -28 34 c-24
30 -26 35 -11 43 10 6 21 5 31 -2 8 -8 14 -8 14 -2 0 6 -6 12 -12 15 -8 3 10
28 47 64 67 67 94 124 90 191 -1 23 -1 42 1 42 1 0 15 -5 30 -10 53 -20 119
21 152 94 17 39 25 116 12 116 -5 0 -10 -8 -10 -18z"/>
<path d="M740 1065 c-9 -10 -9 -15 -1 -15 6 0 11 5 11 10 0 6 5 10 11 10 7 0
9 -10 5 -27 -21 -88 -14 -131 31 -183 45 -54 90 -27 78 47 -7 46 -52 129 -83
154 -30 23 -36 23 -52 4z m120 -192 c0 -22 -26 -14 -37 10 -16 36 -4 54 18 26
10 -13 19 -30 19 -36z"/>
<path d="M1108 1053 c-19 -5 -77 -81 -96 -126 -29 -68 -2 -120 51 -96 42 19
62 66 62 147 -1 74 2 81 24 60 10 -11 11 -10 6 5 -7 17 -15 19 -47 10z m-52
-177 c-17 -26 -36 -34 -36 -16 0 22 33 61 43 51 7 -7 4 -18 -7 -35z"/>
<path d="M730 639 c0 -5 5 -7 10 -4 6 3 10 8 10 11 0 2 -4 4 -10 4 -5 0 -10
-5 -10 -11z"/>
<path d="M910 620 c-30 -7 -37 -32 -15 -54 32 -32 91 -11 83 30 -4 21 -36 33
-68 24z"/>
<path d="M1040 566 c0 -2 8 -10 18 -17 15 -13 16 -12 3 4 -13 16 -21 21 -21
13z"/>
</g>
</svg>
